<svg width="30" height="50" viewBox="0 0 30 50" xmlns="http://www.w3.org/2000/svg"><title>F66C5FC1-BAFA-419F-9C1C-224D452734E3</title><g fill="#FF5389" fill-rule="evenodd"><path d="M15 33l-6.567-6.6c-1.91-1.918-1.91-5.04 0-6.96 1.794-1.803 4.644-1.913 6.567-.33 1.923-1.583 4.774-1.473 6.567.33 1.91 1.92 1.91 5.042 0 6.96L15 33z"/><path d="M26.805 10.45c-1.946-2.493-2.1-4.23-2.33-6.947-.064-.743-.136-1.585-.253-2.508C24.15.427 23.66 0 23.077 0H6.923C6.34 0 5.85.427 5.778.995c-.117.923-.188 1.765-.252 2.508-.23 2.717-.385 4.454-2.33 6.947C1.344 11.04 0 12.755 0 14.773v20.454c0 2.018 1.344 3.732 3.195 4.323 1.946 2.493 2.1 4.23 2.33 6.947.064.743.136 1.585.253 2.508.073.568.563.995 1.145.995h16.154c.582 0 1.072-.427 1.145-.995.117-.923.188-1.765.252-2.508.23-2.717.385-4.454 2.33-6.947C28.656 38.96 30 37.245 30 35.227V14.773c0-2.018-1.344-3.732-3.195-4.323zM7.825 3.693c.04-.46.08-.927.13-1.42h14.09c.05.493.09.96.13 1.42.195 2.305.364 4.247 1.702 6.534H6.123C7.46 7.94 7.63 5.997 7.825 3.693zm14.35 42.614c-.04.46-.08.927-.13 1.42H7.955c-.05-.493-.09-.96-.13-1.42-.195-2.305-.362-4.247-1.7-6.534h17.752c-1.338 2.286-1.506 4.23-1.702 6.534zm5.517-11.08c0 1.254-1.035 2.273-2.307 2.273H4.615c-1.272 0-2.307-1.02-2.307-2.273V14.773c0-1.254 1.035-2.273 2.307-2.273h20.77c1.272 0 2.307 1.02 2.307 2.273v20.454z" opacity=".7"/></g></svg>