<svg width="67" height="82" viewBox="0 0 67 82" xmlns="http://www.w3.org/2000/svg"><title>3C938445-157D-4A6F-9924-21188085950E</title><path d="M66.78 26.58c-.12-.78-.69-1.413-1.45-1.61l-15.167-3.918 6.065-17.505c.28-.807.013-1.702-.66-2.22-.676-.515-1.603-.538-2.303-.053L29.078 18.01l-1.182-8.4c-.09-.654-.503-1.218-1.097-1.502-.593-.283-1.288-.25-1.853.09L7.565 18.676l-.145-.827c.07-.056.146-.098.212-.157.904-.815 1.44-1.935 1.508-3.153.138-2.487-1.757-4.672-4.276-4.805-1.21-.066-2.374.348-3.278 1.163-.903.815-1.44 1.934-1.507 3.152-.124 2.226 1.373 4.19 3.506 4.68l10.67 61.098c.148.84.802 1.46 1.59 1.6.22.038.45.04.684-.003 1.068-.19 1.78-1.217 1.594-2.29l-4.576-26.198 11.745-8.35.803 5.892c.003.02.013.04.016.063.02.117.05.23.09.34.012.03.02.065.033.097.057.136.128.265.215.385.018.026.042.048.062.073.072.09.15.176.238.253.035.032.07.06.11.088.086.067.18.125.278.176.026.014.045.032.072.045.013.005.028.006.04.012.142.062.29.113.448.14l.005.002c.012.002.025 0 .038.003.113.016.225.025.337.024.053 0 .103-.01.155-.015.07-.008.143-.013.212-.028.057-.012.11-.032.166-.05.063-.018.127-.036.19-.063.052-.022.102-.05.154-.08.043-.02.09-.04.13-.065L65.88 28.56c.666-.424 1.018-1.202.9-1.98zM8.29 22.84l16.132-9.724 3.486 24.78-15.112 10.742L8.292 22.84zm22.443 23.326l1.22-7.022c.003-.015 0-.028.004-.043.005-.036.003-.072.007-.11.012-.132.012-.262 0-.39-.004-.026.003-.05 0-.073L29.69 22.37l.027-.014L50.55 7.94l-4.795 13.846c-.18.522-.137 1.096.12 1.582.26.486.71.84 1.24.98l12.82 3.31-29.2 18.508z" fill="#B17EE9" fill-rule="evenodd" opacity=".5"/></svg>