<?xml version="1.0" encoding="UTF-8" standalone="no"?>
<svg width="99px" height="30px" viewBox="0 0 99 30" version="1.1" xmlns="http://www.w3.org/2000/svg" xmlns:xlink="http://www.w3.org/1999/xlink">
    <!-- Generator: sketchtool 40.3 (33839) - http://www.bohemiancoding.com/sketch -->
    <title>487BC934-3B3B-4633-B316-7479510AE39B</title>
    <desc>Created with sketchtool.</desc>
    <defs></defs>
    <g id="Итерация-2" stroke="none" stroke-width="1" fill="none" fill-rule="evenodd">
        <g id="Index" transform="translate(-170.000000, -25.000000)" fill="#B17EE9">
            <g id="Шапка">
                <path d="M178.755232,33.2956153 C176.973309,33.2956153 175.34575,33.7977319 173.872507,34.8019802 C173.619951,33.7977319 172.98857,33.2956153 171.978346,33.2956153 C171.431141,33.2956153 170.961113,33.486561 170.568248,33.8684583 C170.189414,34.2644999 170,34.7312562 170,35.2687412 L170,53.0056577 C170,53.5572871 170.189414,54.0311154 170.568248,54.427157 C170.961113,54.8090542 171.431141,55 171.978346,55 C172.51152,55 172.974532,54.8090542 173.367397,54.427157 C173.746231,54.0311154 173.935645,53.5572871 173.935645,53.0056577 L173.935645,42.1216407 C173.935645,40.7779282 174.405673,39.6322537 175.345743,38.6845827 C176.285813,37.7369118 177.422298,37.2630835 178.755232,37.2630835 L178.902556,37.2630835 C180.22146,37.2630835 181.35093,37.7369118 182.290999,38.6845827 C183.2451,39.6322537 183.722143,40.7779282 183.722143,42.1216407 L183.722143,53.0056577 C183.722143,53.5572871 183.911557,54.0311154 184.290391,54.427157 C184.669225,54.8090542 185.132238,55 185.679443,55 C186.226647,55 186.68966,54.8090542 187.068494,54.427157 C187.461359,54.0311154 187.657788,53.5572871 187.657788,53.0056577 L187.657788,42.1216407 C187.657788,39.6888139 186.801917,37.6096267 185.090148,35.884017 C183.378379,34.1584072 181.315869,33.2956153 178.902556,33.2956153 L178.755232,33.2956153 Z M193.043285,54.427157 C192.664451,54.0311154 192.475037,53.5572871 192.475037,53.0056577 L192.475037,35.3323904 C192.475037,34.780761 192.664451,34.3140047 193.043285,33.9321075 C193.43615,33.5502103 193.906178,33.3592645 194.453383,33.3592645 C194.986556,33.3592645 195.449569,33.5502103 195.842434,33.9321075 C196.221268,34.3140047 196.410682,34.780761 196.410682,35.3323904 L196.410682,53.0056577 C196.410682,53.5572871 196.221268,54.0311154 195.842434,54.427157 C195.449569,54.8090542 194.986556,55 194.453383,55 C193.906178,55 193.43615,54.8090542 193.043285,54.427157 L193.043285,54.427157 Z M196.010804,30.7708628 C195.575846,31.2093374 195.056711,31.4285714 194.453383,31.4285714 C193.836023,31.4285714 193.309873,31.2093374 192.874915,30.7708628 C192.439958,30.3323882 192.222482,29.8090554 192.222482,29.2008487 C192.222482,28.5784976 192.439958,28.0480927 192.874915,27.6096181 C193.309873,27.1711435 193.836023,26.9519095 194.453383,26.9519095 C195.056711,26.9519095 195.575846,27.1711435 196.010804,27.6096181 C196.445761,28.0480927 196.663237,28.5784976 196.663237,29.2008487 C196.663237,29.8090554 196.445761,30.3323882 196.010804,30.7708628 L196.010804,30.7708628 Z M214.950074,46.1739745 C214.950074,47.5176871 214.473031,48.6633616 213.51893,49.6110325 C212.57886,50.5587035 211.44939,51.0325318 210.130487,51.0325318 L209.983163,51.0325318 C208.650228,51.0325318 207.513743,50.5587035 206.573674,49.6110325 C205.633604,48.6633616 205.163576,47.5176871 205.163576,46.1739745 L205.163576,42.1216407 C205.163576,40.7779282 205.633604,39.6322537 206.573674,38.6845827 C207.513743,37.7369118 208.650228,37.2630835 209.983163,37.2630835 L210.130487,37.2630835 C211.44939,37.2630835 212.57886,37.7369118 213.51893,38.6845827 C214.473031,39.6322537 214.950074,40.7779282 214.950074,42.1216407 L214.950074,46.1739745 Z M209.983163,33.2956153 C207.56985,33.2956153 205.50734,34.1584072 203.795571,35.884017 C202.083802,37.6096267 201.227931,39.6888139 201.227931,42.1216407 L201.227931,46.1739745 C201.227931,48.6068014 202.083802,50.6859885 203.795571,52.4115983 C205.50734,54.1372081 207.56985,55 209.983163,55 L210.130487,55 C212.5438,55 214.60631,54.1372081 216.318079,52.4115983 C218.029847,50.6859885 218.885719,48.6068014 218.885719,46.1739745 L218.885719,42.1216407 C218.885719,39.6888139 218.029847,37.6096267 216.318079,35.884017 C214.60631,34.1584072 212.5438,33.2956153 210.130487,33.2956153 L209.983163,33.2956153 Z M232.205645,33.2956153 C230.423722,33.2956153 228.796163,33.7977319 227.322919,34.8019802 C227.070363,33.7977319 226.438983,33.2956153 225.428759,33.2956153 C224.881554,33.2956153 224.411526,33.486561 224.018661,33.8684583 C223.639827,34.2644999 223.450413,34.7312562 223.450413,35.2687412 L223.450413,53.0056577 C223.450413,53.5572871 223.639827,54.0311154 224.018661,54.427157 C224.411526,54.8090542 224.881554,55 225.428759,55 C225.961932,55 226.424945,54.8090542 226.81781,54.427157 C227.196644,54.0311154 227.386058,53.5572871 227.386058,53.0056577 L227.386058,42.1216407 C227.386058,40.7779282 227.856086,39.6322537 228.796156,38.6845827 C229.736225,37.7369118 230.87271,37.2630835 232.205645,37.2630835 L232.352969,37.2630835 C233.671872,37.2630835 234.801342,37.7369118 235.741412,38.6845827 C236.695513,39.6322537 237.172556,40.7779282 237.172556,42.1216407 L237.172556,53.0056577 C237.172556,53.5572871 237.36197,54.0311154 237.740804,54.427157 C238.119638,54.8090542 238.58265,55 239.129855,55 C239.67706,55 240.140072,54.8090542 240.518907,54.427157 C240.911771,54.0311154 241.108201,53.5572871 241.108201,53.0056577 L241.108201,42.1216407 C241.108201,39.6888139 240.252329,37.6096267 238.540561,35.884017 C236.828792,34.1584072 234.766282,33.2956153 232.352969,33.2956153 L232.205645,33.2956153 Z M246.493698,54.427157 C246.114864,54.0311154 245.92545,53.5572871 245.92545,53.0056577 L245.92545,35.3323904 C245.92545,34.780761 246.114864,34.3140047 246.493698,33.9321075 C246.886563,33.5502103 247.356591,33.3592645 247.903795,33.3592645 C248.436969,33.3592645 248.899982,33.5502103 249.292847,33.9321075 C249.671681,34.3140047 249.861095,34.780761 249.861095,35.3323904 L249.861095,53.0056577 C249.861095,53.5572871 249.671681,54.0311154 249.292847,54.427157 C248.899982,54.8090542 248.436969,55 247.903795,55 C247.356591,55 246.886563,54.8090542 246.493698,54.427157 L246.493698,54.427157 Z M249.461216,30.7708628 C249.026259,31.2093374 248.507124,31.4285714 247.903795,31.4285714 C247.286436,31.4285714 246.760286,31.2093374 246.325328,30.7708628 C245.89037,30.3323882 245.672895,29.8090554 245.672895,29.2008487 C245.672895,28.5784976 245.89037,28.0480927 246.325328,27.6096181 C246.760286,27.1711435 247.286436,26.9519095 247.903795,26.9519095 C248.507124,26.9519095 249.026259,27.1711435 249.461216,27.6096181 C249.896174,28.0480927 250.11365,28.5784976 250.11365,29.2008487 C250.11365,29.8090554 249.896174,30.3323882 249.461216,30.7708628 L249.461216,30.7708628 Z M261.413138,43.0339463 L267.453406,36.9236209 C267.83224,36.5417237 268.021654,36.0820395 268.021654,35.5445545 C268.021654,35.0070694 267.83224,34.5473852 267.453406,34.165488 C267.074572,33.7835907 266.618575,33.592645 266.085401,33.592645 C265.538196,33.592645 265.075184,33.7835907 264.69635,34.165488 L259.034913,39.8727016 L259.034913,26.9943423 C259.034913,26.4427129 258.845499,25.9759566 258.466665,25.5940594 C258.0738,25.1980178 257.610788,25 257.077614,25 C256.530409,25 256.060381,25.1980178 255.667516,25.5940594 C255.288682,25.9759566 255.099268,26.4427129 255.099268,26.9943423 L255.099268,53.0056577 C255.099268,53.5572871 255.288682,54.0311154 255.667516,54.427157 C256.060381,54.8090542 256.530409,55 257.077614,55 C257.610788,55 258.0738,54.8090542 258.466665,54.427157 C258.845499,54.0311154 259.034913,53.5572871 259.034913,53.0056577 L259.034913,46.3649222 L264.948904,54.2149929 C265.271615,54.6534675 265.699551,54.9080619 266.232725,54.9787836 C266.765898,55.0495053 267.242942,54.9222081 267.663868,54.5968883 C268.098826,54.2715684 268.351378,53.8401724 268.421533,53.3026874 C268.491687,52.7652024 268.365411,52.284302 268.0427,51.8599717 L261.413138,43.0339463 Z" id="nionik"></path>
            </g>
        </g>
    </g>
</svg>