<svg width="64" height="70" viewBox="0 0 64 70" xmlns="http://www.w3.org/2000/svg"><title>05781084-5BDD-48F6-B4A0-03F8B7806550</title><path d="M39.21 0c-3.073 0-5.598 2.51-5.598 5.566 0 1.045.288 2.02.8 2.858C23.025 10.648 14.42 20.636 14.42 32.602c0 1.432.167 2.78.424 4.075C6.51 37.652 0 44.735 0 53.277 0 62.48 7.563 70 16.818 70c8.1 0 14.897-5.766 16.47-13.37 1.924.452 3.934.622 5.922.622 13.672 0 24.79-11.055 24.79-24.65 0-11.966-8.605-21.954-19.992-24.178.51-.84.8-1.813.8-2.858C44.807 2.51 42.28 0 39.21 0zm0 3.18c1.344 0 2.4 1.05 2.4 2.386 0 1.337-1.056 2.386-2.4 2.386-1.344 0-2.4-1.05-2.4-2.386s1.056-2.385 2.4-2.385zm0 7.952c11.943 0 21.59 9.594 21.59 21.47s-9.647 21.47-21.59 21.47c-1.95 0-3.85-.2-5.573-.646v-.15c0-8.78-6.874-16.027-15.544-16.673-.285-1.33-.475-2.65-.475-4 0-11.877 9.648-21.47 21.592-21.47zm0 1.59c-1.325 0-2.4 1.07-2.4 2.386 0 1.318 1.075 2.386 2.4 2.386s2.4-1.068 2.4-2.386c0-1.317-1.075-2.385-2.4-2.385zm-.15 6.362c-.666.06-1.225.526-1.4 1.168L34.462 32.18c-.073.268-.073.55 0 .82l3.198 11.927c.182.704.82 1.196 1.55 1.196.73 0 1.368-.492 1.55-1.196L43.957 33c.072-.27.072-.552 0-.82l-3.2-11.928c-.203-.75-.92-1.243-1.698-1.168zm.15 7.753l1.124 4.175h-2.25l1.126-4.175zm-17.593 3.38c-1.325 0-2.4 1.068-2.4 2.385 0 1.318 1.075 2.386 2.4 2.386s2.4-1.068 2.4-2.386c0-1.317-1.075-2.385-2.4-2.385zm35.186 0c-1.325 0-2.4 1.068-2.4 2.385 0 1.318 1.075 2.386 2.4 2.386s2.4-1.068 2.4-2.386c0-1.317-1.075-2.385-2.4-2.385zm-18.718 3.975h2.25l-1.125 4.125-1.125-4.125zm-21.267 5.59c7.528 0 13.57 6.01 13.57 13.495 0 7.484-6.042 13.493-13.57 13.493-7.527 0-13.57-6.01-13.57-13.493 0-7.485 6.043-13.494 13.57-13.494zm0 3.157c-4.46 0-7.996 3.804-7.996 7.95v1.393l-.725.347c-.544.276-.884.835-.875 1.442v3.18c0 .88.716 1.59 1.6 1.59h3.998v.72c0 2.19 1.786 4.052 3.998 4.052 2.213 0 4-1.86 4-4.05v-.72h3.998c.883 0 1.6-.713 1.6-1.592v-3.18c.008-.607-.332-1.166-.876-1.442l-.725-.347V50.89c0-4.146-3.536-7.95-7.997-7.95zm0 3.18c2.502 0 4.8 2.557 4.8 4.77v2.387c0 .598.337 1.145.873 1.416l.726.373v.596H10.42v-.596l.726-.373c.536-.27.874-.818.874-1.416V50.89c0-2.213 2.297-4.77 4.798-4.77zm22.392 1.59c-1.325 0-2.4 1.068-2.4 2.386 0 1.317 1.075 2.385 2.4 2.385s2.4-1.067 2.4-2.384c0-1.318-1.075-2.386-2.4-2.386zM16.02 58.843h1.598v.72c0 .53-.354.87-.8.87-.446 0-.8-.34-.8-.87v-.72z" fill="#B17EE9" fill-rule="evenodd" opacity=".5"/></svg>